<svg width="1448" height="1032" viewBox="0 0 1448 1032" fill="none" xmlns="http://www.w3.org/2000/svg">
<g clip-path="url(#clip0_1_2)" filter="url(#filter0_d_1_2)">
<rect width="1440" height="1024" transform="translate(4)" fill="#C1B5EA" fill-opacity="0.22"/>
<path d="M829.888 707.84C836.488 711.74 843.788 716.54 844.488 722.34C845.188 728.04 839.188 734.64 834.888 742.14C830.588 749.74 827.888 758.24 822.488 760.84C817.088 763.44 808.988 760.04 800.588 757.14C792.188 754.34 783.488 751.84 778.288 745.94C773.088 740.04 771.388 730.54 772.188 720.74C772.888 710.94 776.188 700.84 783.088 696.94C790.088 693.14 800.588 695.64 808.888 698.34C817.188 701.04 823.188 704.04 829.888 707.84Z" fill="url(#paint0_linear_1_2)"/>
<path d="M699.96 370.646C723.503 386.459 746.344 409.675 744.938 432.218C743.884 454.424 718.584 475.621 695.041 495.136C671.498 514.65 649.36 532.146 619.14 539.885C589.272 547.623 550.97 545.268 543.591 525.753C535.86 506.239 558.701 469.565 560.809 435.246C562.918 400.591 543.942 367.954 551.673 352.14C559.052 336.327 593.137 337.336 622.303 342.047C651.82 346.421 676.066 354.832 699.96 370.646Z" fill="url(#paint1_linear_1_2)"/>
<g filter="url(#filter1_f_1_2)">
<path d="M45.9602 47.6456C69.5034 63.4592 92.3439 86.6749 90.9383 109.218C89.8841 131.424 64.5839 152.621 41.0407 172.136C17.4975 191.65 -4.64015 209.146 -34.8598 216.885C-64.7281 224.623 -103.03 222.268 -110.409 202.753C-118.14 183.239 -95.2991 146.565 -93.1908 112.246C-91.0824 77.5905 -110.058 44.9539 -102.327 29.1404C-94.9477 13.3268 -60.8628 14.3361 -31.6973 19.0466C-2.18042 23.4205 22.0656 31.832 45.9602 47.6456Z" fill="url(#paint2_linear_1_2)"/>
<path d="M45.9602 47.6456C69.5034 63.4592 92.3439 86.6749 90.9383 109.218C89.8841 131.424 64.5839 152.621 41.0407 172.136C17.4975 191.65 -4.64015 209.146 -34.8598 216.885C-64.7281 224.623 -103.03 222.268 -110.409 202.753C-118.14 183.239 -95.2991 146.565 -93.1908 112.246C-91.0824 77.5905 -110.058 44.9539 -102.327 29.1404C-94.9477 13.3268 -60.8628 14.3361 -31.6973 19.0466C-2.18042 23.4205 22.0656 31.832 45.9602 47.6456Z" stroke="url(#paint3_linear_1_2)"/>
</g>
<path d="M313.933 618.864C353.596 610.265 397.743 609.81 435.655 627.158C473.567 644.505 505.243 679.654 513.788 725.731C522.046 771.416 506.404 827.991 468.575 856.301C430.551 885.356 369.859 886.5 319.23 895.311C269.084 903.768 229.68 918.795 201.246 911.349C173.293 903.55 156.506 872.535 130.018 838.397C103.817 804.652 67.9168 767.784 79.0176 737.396C89.9226 707.752 148.311 684.233 194.47 664.259C240.628 644.285 275.039 627.502 313.933 618.864Z" fill="url(#paint4_linear_1_2)"/>
<path d="M1159.39 670.769C1177.68 681.634 1197.91 695.006 1199.84 711.164C1201.78 727.043 1185.16 745.43 1173.25 766.324C1161.33 787.496 1153.85 811.176 1138.89 818.419C1123.93 825.662 1101.48 816.19 1078.21 808.111C1054.94 800.311 1030.83 793.346 1016.42 776.91C1002.01 760.473 997.305 734.008 999.521 706.707C1001.46 679.405 1010.6 651.268 1029.72 640.404C1049.12 629.818 1078.21 636.782 1101.21 644.304C1124.2 651.826 1140.83 660.183 1159.39 670.769Z" fill="url(#paint5_linear_1_2)"/>
<path d="M783.2 158.2C787.2 168.4 780.5 184.1 769.1 192.2C757.6 200.3 741.3 200.8 732.4 193.8C723.6 186.7 722 172.1 726.2 161.5C730.3 151 740.2 144.6 752.4 143.9C764.6 143.1 779.3 147.9 783.2 158.2Z" stroke="url(#paint6_linear_1_2)"/>
<path d="M545.751 692.286C570.659 746.376 528.938 829.631 457.951 872.585C386.341 915.538 284.842 918.19 229.422 881.069C174.625 843.419 164.662 765.997 190.815 709.786C216.346 654.105 277.992 620.167 353.961 616.455C429.93 612.212 521.466 637.666 545.751 692.286Z" stroke="url(#paint7_linear_1_2)"/>
<path d="M1308.93 249.58C1282.69 283.189 1216.93 292.528 1167.34 271.156C1117.55 249.453 1083.72 196.709 1089.6 153.35C1096 110.12 1141.7 75.6161 1185.46 68.2438C1228.69 60.7419 1269.64 80.5722 1296.04 119.397C1322.78 158.022 1335.71 216.101 1308.93 249.58Z" stroke="url(#paint8_linear_1_2)"/>
<path d="M398.219 395.386C402.219 405.586 395.519 421.286 384.119 429.386C372.619 437.486 356.319 437.986 347.419 430.986C338.619 423.886 337.019 409.286 341.219 398.686C345.319 388.186 355.219 381.786 367.419 381.086C379.619 380.286 394.319 385.086 398.219 395.386Z" stroke="url(#paint9_linear_1_2)"/>
<path d="M844.219 715.386C848.219 725.586 841.519 741.286 830.119 749.386C818.619 757.486 802.319 757.986 793.419 750.986C784.619 743.886 783.019 729.286 787.219 718.686C791.319 708.186 801.219 701.786 813.419 701.086C825.619 700.286 840.319 705.086 844.219 715.386Z" stroke="url(#paint10_linear_1_2)"/>
<path d="M224.894 94.828C239.004 126.613 215.369 175.536 175.156 200.777C134.59 226.017 77.0913 227.575 45.6966 205.762C14.6546 183.638 9.01059 138.142 23.8261 105.111C38.2888 72.3918 73.2111 52.4485 116.247 50.2672C159.282 47.7743 211.136 62.7318 224.894 94.828Z" stroke="url(#paint11_linear_1_2)"/>
<path d="M1272.6 113.751C1307.34 139.293 1336.82 176.529 1340.27 216.766C1344.15 256.521 1322.03 299.731 1289.63 311.314C1257.23 322.897 1213.68 303.364 1183.12 293.013C1152.6 283.116 1134.64 282.881 1113.42 274.671C1091.74 266.489 1066.8 250.331 1063.74 230.978C1061.14 211.596 1080 189.501 1099.34 160.558C1118.22 131.643 1137.14 95.9083 1167.3 85.3749C1196.98 74.4175 1237.41 88.2375 1272.6 113.751Z" fill="url(#paint12_linear_1_2)"/>
<path d="M1019.39 1086.1C997.967 1123.51 964.326 1157.04 924.742 1165.04C885.686 1173.42 840.241 1156.35 825.049 1125.48C809.856 1094.61 824.309 1049.12 831.117 1017.58C837.479 986.129 835.669 968.261 841.413 946.245C847.077 923.777 860.294 897.161 879.173 891.922C898.134 887.135 922.229 903.354 953.185 919.279C984.06 934.753 1021.71 949.482 1035.61 978.251C1049.87 1006.49 1040.74 1048.23 1019.39 1086.1Z" fill="url(#paint13_linear_1_2)"/>
<path d="M1106.32 430.662C1124.52 443.85 1130.09 458.483 1137.14 473.658C1143.83 488.832 1151.99 504.369 1143.08 518.279C1134.17 532.189 1108.18 544.474 1079.21 547.364C1050.25 550.074 1017.94 543.751 994.176 535.441C970.782 527.131 955.186 517.014 942.189 506.175C929.564 495.336 918.795 483.774 922.88 473.838C926.964 463.722 945.531 455.05 965.583 441.863C985.264 428.855 1006.06 411.151 1031.68 408.442C1057.68 405.551 1088.12 417.294 1106.32 430.662Z" fill="url(#paint14_linear_1_2)"/>
<path d="M973.784 173.677C978.722 176.524 980.821 181.348 982.92 185.539C984.895 189.73 986.747 193.289 989.463 197.955C992.302 202.62 996.13 208.314 992.549 210.686C988.846 213.059 977.735 212.11 970.08 213.217C962.303 214.324 958.105 217.408 952.056 219.306C946.13 221.204 938.476 221.837 934.278 219.464C929.958 217.092 929.217 211.714 928.229 207.444C927.365 203.174 926.254 200.09 924.526 196.294C922.797 192.498 920.451 188.149 923.414 186.172C926.377 184.116 934.649 184.511 940.575 182.06C946.501 179.608 950.204 174.389 955.76 172.254C961.315 170.04 968.969 170.909 973.784 173.677Z" fill="url(#paint15_linear_1_2)"/>
<path d="M418.197 142.627C430.929 157.251 430.49 168.125 448.053 181.623C465.176 195.31 499.862 211.808 498.984 226.619C498.545 241.43 462.981 254.554 420.831 261.491C379.12 268.428 331.263 269.365 296.138 261.116C261.452 253.054 239.5 235.806 232.036 220.057C224.571 204.121 231.596 189.873 245.207 179.561C259.257 169.25 280.771 163.063 300.529 149.002C320.286 134.753 338.288 112.818 359.802 111.13C381.316 109.255 405.903 128.004 418.197 142.627Z" fill="url(#paint16_linear_1_2)"/>
<path d="M1535.2 603.627C1547.93 618.251 1547.49 629.125 1565.05 642.623C1582.18 656.31 1616.86 672.808 1615.98 687.619C1615.54 702.43 1579.98 715.554 1537.83 722.491C1496.12 729.428 1448.26 730.365 1413.14 722.116C1378.45 714.054 1356.5 696.806 1349.04 681.057C1341.57 665.121 1348.6 650.873 1362.21 640.561C1376.26 630.25 1397.77 624.063 1417.53 610.002C1437.29 595.753 1455.29 573.818 1476.8 572.13C1498.32 570.255 1522.9 589.004 1535.2 603.627Z" fill="url(#paint17_linear_1_2)"/>
</g>
<defs>
<filter id="filter0_d_1_2" x="0" y="0" width="1448" height="1032" filterUnits="userSpaceOnUse" color-interpolation-filters="sRGB">
<feFlood flood-opacity="0" result="BackgroundImageFix"/>
<feColorMatrix in="SourceAlpha" type="matrix" values="0 0 0 0 0 0 0 0 0 0 0 0 0 0 0 0 0 0 127 0" result="hardAlpha"/>
<feOffset dy="4"/>
<feGaussianBlur stdDeviation="2"/>
<feComposite in2="hardAlpha" operator="out"/>
<feColorMatrix type="matrix" values="0 0 0 0 0 0 0 0 0 0 0 0 0 0 0 0 0 0 0.25 0"/>
<feBlend mode="normal" in2="BackgroundImageFix" result="effect1_dropShadow_1_2"/>
<feBlend mode="normal" in="SourceGraphic" in2="effect1_dropShadow_1_2" result="shape"/>
</filter>
<filter id="filter1_f_1_2" x="-116" y="12" width="211" height="213" filterUnits="userSpaceOnUse" color-interpolation-filters="sRGB">
<feFlood flood-opacity="0" result="BackgroundImageFix"/>
<feBlend mode="normal" in="SourceGraphic" in2="BackgroundImageFix" result="shape"/>
<feGaussianBlur stdDeviation="2" result="effect1_foregroundBlur_1_2"/>
</filter>
<linearGradient id="paint0_linear_1_2" x1="772" y1="761.766" x2="838.537" y2="689.471" gradientUnits="userSpaceOnUse">
<stop stop-color="#5C4B99"/>
<stop offset="1" stop-color="#9B87E2"/>
</linearGradient>
<linearGradient id="paint1_linear_1_2" x1="542" y1="544" x2="746.99" y2="341.01" gradientUnits="userSpaceOnUse">
<stop stop-color="#9B87E2"/>
<stop offset="1" stop-color="#3714B7"/>
</linearGradient>
<linearGradient id="paint2_linear_1_2" x1="-112" y1="221" x2="92.9901" y2="18.0098" gradientUnits="userSpaceOnUse">
<stop stop-color="#5C4B99"/>
<stop offset="1" stop-color="#9B87E2"/>
</linearGradient>
<linearGradient id="paint3_linear_1_2" x1="-112" y1="221" x2="92.9901" y2="18.0098" gradientUnits="userSpaceOnUse">
<stop stop-color="#9B87E2"/>
<stop offset="1" stop-color="#5C4B99"/>
</linearGradient>
<linearGradient id="paint4_linear_1_2" x1="255.366" y1="1012.5" x2="293.295" y2="505.999" gradientUnits="userSpaceOnUse">
<stop stop-color="#9B87E2"/>
<stop offset="1" stop-color="#3D229E"/>
</linearGradient>
<linearGradient id="paint5_linear_1_2" x1="999" y1="821" x2="1184.44" y2="620.603" gradientUnits="userSpaceOnUse">
<stop stop-color="#4E34AD"/>
<stop offset="1" stop-color="#9B87E2"/>
</linearGradient>
<linearGradient id="paint6_linear_1_2" x1="723.981" y1="198.69" x2="778.607" y2="138.582" gradientUnits="userSpaceOnUse">
<stop stop-color="#F87537"/>
<stop offset="1" stop-color="#FBA81F"/>
</linearGradient>
<linearGradient id="paint7_linear_1_2" x1="177" y1="907" x2="458.699" y2="543.017" gradientUnits="userSpaceOnUse">
<stop stop-color="#F87537"/>
<stop offset="1" stop-color="#FBA81F"/>
</linearGradient>
<linearGradient id="paint8_linear_1_2" x1="1056.63" y1="135.381" x2="1364.58" y2="199.721" gradientUnits="userSpaceOnUse">
<stop stop-color="#F87537"/>
<stop offset="1" stop-color="#FBA81F"/>
</linearGradient>
<linearGradient id="paint9_linear_1_2" x1="339" y1="435.876" x2="393.626" y2="375.768" gradientUnits="userSpaceOnUse">
<stop stop-color="#F87537"/>
<stop offset="1" stop-color="#FBA81F"/>
</linearGradient>
<linearGradient id="paint10_linear_1_2" x1="785" y1="755.876" x2="839.626" y2="695.768" gradientUnits="userSpaceOnUse">
<stop stop-color="#F87537"/>
<stop offset="1" stop-color="#FBA81F"/>
</linearGradient>
<linearGradient id="paint11_linear_1_2" x1="16" y1="221" x2="182.957" y2="13.0359" gradientUnits="userSpaceOnUse">
<stop stop-color="#FBA81F"/>
<stop offset="1" stop-color="#FBA81F"/>
</linearGradient>
<linearGradient id="paint12_linear_1_2" x1="1069.74" y1="327.46" x2="1287.37" y2="39.3886" gradientUnits="userSpaceOnUse">
<stop stop-color="#5C4B99" stop-opacity="0.4"/>
<stop offset="1" stop-color="#5C4B99"/>
</linearGradient>
<linearGradient id="paint13_linear_1_2" x1="784" y1="908.858" x2="1094.95" y2="1092.31" gradientUnits="userSpaceOnUse">
<stop stop-color="#5C4B99"/>
<stop offset="1" stop-color="white"/>
</linearGradient>
<linearGradient id="paint14_linear_1_2" x1="922" y1="548" x2="1047.6" y2="346.149" gradientUnits="userSpaceOnUse">
<stop stop-color="#6A5BA2"/>
<stop offset="1" stop-color="#4C31AC"/>
</linearGradient>
<linearGradient id="paint15_linear_1_2" x1="922" y1="221" x2="968.851" y2="153.535" gradientUnits="userSpaceOnUse">
<stop stop-color="#5C4B99"/>
<stop offset="1" stop-color="#9B87E2"/>
</linearGradient>
<linearGradient id="paint16_linear_1_2" x1="229" y1="267" x2="364.15" y2="33.0866" gradientUnits="userSpaceOnUse">
<stop stop-color="#9B87E2"/>
<stop offset="1" stop-color="#492BB6"/>
</linearGradient>
<linearGradient id="paint17_linear_1_2" x1="1346" y1="728" x2="1481.15" y2="494.087" gradientUnits="userSpaceOnUse">
<stop stop-color="#9B87E2" stop-opacity="0.46"/>
<stop offset="1" stop-color="#5C4B99"/>
</linearGradient>
<clipPath id="clip0_1_2">
<rect width="1440" height="1024" fill="white" transform="translate(4)"/>
</clipPath>
</defs>
</svg>
