<!--?xml version="1.0" standalone="no"?-->
              <svg id="sw-js-blob-svg" viewBox="0 0 100 100" xmlns="http://www.w3.org/2000/svg" version="1.1">
                    <defs> 
                        <linearGradient id="sw-gradient" x1="0" x2="1" y1="1" y2="0">
                            <stop id="stop1" stop-color="rgba(248, 225.659, 55, 1)" offset="0%"></stop>
                            <stop id="stop2" stop-color="rgba(255, 231.645, 102.374, 1)" offset="100%"></stop>
                        </linearGradient>
                    </defs>
                <path fill="url(#sw-gradient)" d="M16.2,-29.4C20.2,-25.8,21.9,-19.7,23.6,-14.4C25.2,-9.1,26.7,-4.6,28.9,1.3C31.2,7.2,34.3,14.4,31.4,17.4C28.4,20.4,19.4,19.2,13.2,20.6C6.9,22,3.5,25.9,-1.4,28.3C-6.2,30.7,-12.4,31.5,-15.8,28.5C-19.3,25.5,-19.9,18.7,-20.7,13.3C-21.4,7.9,-22.3,4,-23.7,-0.8C-25.1,-5.6,-27,-11.1,-24.6,-13.6C-22.2,-16.2,-15.5,-15.7,-10.7,-18.8C-5.9,-21.9,-2.9,-28.5,1.6,-31.2C6.1,-34,12.3,-32.9,16.2,-29.4Z" width="100%" height="100%" transform="translate(50 50)" stroke-width="0" style="transition: all 0.3s ease 0s;" stroke="url(#sw-gradient)"></path>
              </svg>