<!--?xml version="1.0" standalone="no"?-->
              <svg id="sw-js-blob-svg" viewBox="0 0 100 100" xmlns="http://www.w3.org/2000/svg" version="1.1">
                    <defs> 
                        <linearGradient id="sw-gradient" x1="0" x2="1" y1="1" y2="0">
                            <stop id="stop1" stop-color="rgba(255, 235.283, 175.729, 1)" offset="0%"></stop>
                            <stop id="stop2" stop-color="rgba(233.442, 228.229, 127.923, 1)" offset="100%"></stop>
                        </linearGradient>
                    </defs>
                <path fill="url(#sw-gradient)" d="M18.7,-20.5C24.9,-17.1,30.9,-11.8,34.3,-4.3C37.7,3.2,38.5,12.9,35.1,21.6C31.7,30.2,24,37.7,16.1,37.8C8.1,38,-0.2,30.8,-7.9,26.1C-15.5,21.4,-22.3,19.1,-25.4,14.4C-28.4,9.7,-27.6,2.5,-27.8,-6.4C-28,-15.2,-29.2,-25.7,-24.7,-29.4C-20.3,-33,-10.1,-29.8,-1.9,-27.5C6.3,-25.2,12.6,-23.8,18.7,-20.5Z" width="100%" height="100%" transform="translate(50 50)" stroke-width="0" style="transition: all 0.3s ease 0s;" stroke="url(#sw-gradient)"></path>
              </svg>