<!--?xml version="1.0" standalone="no"?-->
              <svg id="sw-js-blob-svg" viewBox="0 0 100 100" xmlns="http://www.w3.org/2000/svg" version="1.1">
                    <defs> 
                        <linearGradient id="sw-gradient" x1="0" x2="1" y1="1" y2="0">
                            <stop id="stop1" stop-color="rgba(255, 235.283, 175.729, 1)" offset="0%"></stop>
                            <stop id="stop2" stop-color="rgba(233.442, 228.229, 127.923, 1)" offset="100%"></stop>
                        </linearGradient>
                    </defs>
                <path fill="url(#sw-gradient)" d="M18.7,-20.6C25.3,-16.7,32.6,-11.9,33.3,-6.1C34,-0.4,28,6.2,23.7,13.7C19.4,21.3,16.7,29.8,11.3,32.4C5.9,35,-2.2,31.6,-10.6,28.7C-19,25.9,-27.7,23.4,-32.9,17.5C-38.1,11.6,-39.8,2.1,-39,-7.7C-38.3,-17.5,-35,-27.6,-28.1,-31.5C-21.1,-35.3,-10.6,-32.8,-2.3,-30.1C6,-27.4,12,-24.4,18.7,-20.6Z" width="100%" height="100%" transform="translate(50 50)" stroke-width="0" style="transition: all 0.3s ease 0s;" stroke="url(#sw-gradient)"></path>
              </svg>