<!--?xml version="1.0" standalone="no"?-->
              <svg id="sw-js-blob-svg" viewBox="0 0 100 100" xmlns="http://www.w3.org/2000/svg" version="1.1">
                    <defs> 
                        <linearGradient id="sw-gradient" x1="0" x2="1" y1="1" y2="0">
                            <stop id="stop1" stop-color="rgba(233.442, 201.951, 106.836, 1)" offset="0%"></stop>
                            <stop id="stop2" stop-color="rgba(255, 242.403, 0, 0)" offset="100%"></stop>
                        </linearGradient>
                    </defs>
                <path fill="url(#sw-gradient)" d="M17.3,-26.1C24.1,-26.1,32.3,-24.7,33.4,-20.1C34.5,-15.6,28.5,-7.8,25.1,-2C21.6,3.8,20.7,7.6,20.3,13.4C19.9,19.3,20,27.1,16.7,30.8C13.4,34.6,6.7,34.2,-0.3,34.7C-7.3,35.2,-14.6,36.5,-16.8,32.2C-19,27.8,-16.2,17.8,-19.7,11.5C-23.3,5.1,-33.2,2.6,-34.4,-0.7C-35.6,-4,-28.1,-7.9,-24.5,-14.1C-20.8,-20.2,-21.1,-28.6,-17.7,-30.6C-14.2,-32.5,-7.1,-28,-0.9,-26.4C5.3,-24.8,10.6,-26.1,17.3,-26.1Z" width="100%" height="100%" transform="translate(50 50)" stroke-width="0" style="transition: all 0.3s ease 0s;" stroke="url(#sw-gradient)"></path>
              </svg>