<!--?xml version="1.0" standalone="no"?-->
              <svg id="sw-js-blob-svg" viewBox="0 0 100 100" xmlns="http://www.w3.org/2000/svg" version="1.1">
                    <defs> 
                        <linearGradient id="sw-gradient" x1="0" x2="1" y1="1" y2="0">
                            <stop id="stop1" stop-color="rgba(244, 232, 105, 0.85)" offset="0%"></stop>
                            <stop id="stop2" stop-color="rgba(250, 242, 211, 1)" offset="100%"></stop>
                        </linearGradient>
                    </defs>
                <path fill="url(#sw-gradient)" d="M13.3,-25.1C17.8,-20.5,22.3,-18,23.8,-14.2C25.3,-10.3,23.7,-5.2,25.6,1.1C27.5,7.3,32.8,14.7,31.2,18.4C29.7,22.1,21.3,22.2,14.9,24C8.6,25.9,4.3,29.5,-1.8,32.6C-7.9,35.7,-15.7,38.3,-22.9,36.9C-30.1,35.5,-36.5,30.2,-36.6,23.4C-36.7,16.5,-30.5,8.3,-26.5,2.3C-22.5,-3.7,-20.8,-7.3,-20.1,-13.2C-19.5,-19.2,-20,-27.3,-16.8,-32.6C-13.7,-37.9,-6.8,-40.4,-1.2,-38.3C4.4,-36.2,8.9,-29.6,13.3,-25.1Z" width="100%" height="100%" transform="translate(50 50)" stroke-width="0" style="transition: all 0.3s ease 0s;"></path>
              </svg>