<!--?xml version="1.0" standalone="no"?-->
              <svg id="sw-js-blob-svg" viewBox="0 0 100 100" xmlns="http://www.w3.org/2000/svg" version="1.1">
                    <defs> 
                        <linearGradient id="sw-gradient" x1="0" x2="1" y1="1" y2="0">
                            <stop id="stop1" stop-color="rgba(248, 186.164, 55, 1)" offset="0%"></stop>
                            <stop id="stop2" stop-color="rgba(251, 247.584, 31, 0.82)" offset="100%"></stop>
                        </linearGradient>
                    </defs>
                <path fill="url(#sw-gradient)" d="M26,-31.7C30.9,-27,29.9,-16,29.3,-7C28.7,2,28.5,9.2,25.5,15C22.5,20.8,16.6,25.3,9.9,28.2C3.1,31.1,-4.6,32.5,-10.7,30C-16.7,27.5,-21.1,21.1,-26.4,14.2C-31.6,7.3,-37.6,-0.2,-38,-8.2C-38.4,-16.2,-33.2,-24.8,-25.9,-29.1C-18.6,-33.4,-9.3,-33.5,0.6,-34.3C10.6,-35.1,21.2,-36.5,26,-31.7Z" width="100%" height="100%" transform="translate(50 50)" stroke-width="0" style="transition: all 0.3s ease 0s;"></path>
              </svg>