<!--?xml version="1.0" standalone="no"?-->
              <svg id="sw-js-blob-svg" viewBox="0 0 100 100" xmlns="http://www.w3.org/2000/svg" version="1.1">
                    <defs> 
                        <linearGradient id="sw-gradient" x1="0" x2="1" y1="1" y2="0">
                            <stop id="stop1" stop-color="rgba(255, 203.413, 47.599, 1)" offset="0%"></stop>
                            <stop id="stop2" stop-color="rgba(233.442, 228.229, 127.923, 1)" offset="100%"></stop>
                        </linearGradient>
                    </defs>
                <path fill="url(#sw-gradient)" d="M21.4,-28.7C26.3,-21.4,27.8,-13.3,29.7,-4.9C31.5,3.5,33.7,12.1,31.3,19.8C28.9,27.5,21.9,34.3,14.1,35.9C6.3,37.4,-2.4,33.9,-8.8,29.3C-15.1,24.7,-19.3,19.1,-22.8,13.1C-26.2,7.1,-29.1,0.7,-28,-4.8C-26.9,-10.4,-21.9,-15.2,-16.5,-22.5C-11.2,-29.7,-5.6,-39.5,1.3,-41C8.3,-42.6,16.5,-36.1,21.4,-28.7Z" width="100%" height="100%" transform="translate(50 50)" stroke-width="0" style="transition: all 0.3s ease 0s;" stroke="url(#sw-gradient)"></path>
              </svg>