<!--?xml version="1.0" standalone="no"?-->
              <svg id="sw-js-blob-svg" viewBox="0 0 100 100" xmlns="http://www.w3.org/2000/svg" version="1.1">
                    <defs> 
                        <linearGradient id="sw-gradient" x1="0" x2="1" y1="1" y2="0">
                            <stop id="stop1" stop-color="rgba(255, 191.574, 0, 1)" offset="0%"></stop>
                            <stop id="stop2" stop-color="rgba(255, 242.403, 0, 1)" offset="100%"></stop>
                        </linearGradient>
                    </defs>
                <path fill="url(#sw-gradient)" d="M14.1,-22.3C17,-14.5,16.9,-8.7,20.9,-1.5C24.8,5.8,32.7,14.6,32.5,22.5C32.4,30.4,24.3,37.4,14.7,41.1C5.2,44.8,-5.7,45.3,-13.7,40.9C-21.6,36.6,-26.6,27.4,-28.3,19C-30,10.5,-28.4,2.9,-25.3,-2.6C-22.1,-8.1,-17.2,-11.4,-12.7,-18.9C-8.2,-26.5,-4.1,-38.2,0.8,-39.1C5.7,-40.1,11.3,-30.1,14.1,-22.3Z" width="100%" height="100%" transform="translate(50 50)" stroke-width="0" style="transition: all 0.3s ease 0s;" stroke="url(#sw-gradient)"></path>
              </svg>