<svg xmlns="http://www.w3.org/2000/svg" version="1.1" xmlns:xlink="http://www.w3.org/1999/xlink" xmlns:svgjs="http://svgjs.dev/svgjs" viewBox="0 0 3.3654715986196893 1.590578819991417"><g transform="matrix(1,0,0,1,0.19008940999570845,0.43928940999570854)"><g><path d=" M 0.509 0.506 L 0.605 0.712 L 0.7020000000000001 0.712 L 0.376 0.0119999999999999 L 0.326 0.0119999999999999 L 0.03 0.712 L 0.076 0.712 L 0.164 0.506 L 0.509 0.506 M 0.488 0.46099999999999997 L 0.183 0.46099999999999997 L 0.327 0.124 L 0.331 0.124 L 0.488 0.46099999999999997 M 1.4509946289062499 0.583 Q 1.34899462890625 0.6789999999999999 1.20899462890625 0.6789999999999999 Q 1.13099462890625 0.6789999999999999 1.07099462890625 0.6519999999999999 Q 1.01099462890625 0.625 0.97099462890625 0.58 Q 0.9309946289062501 0.5349999999999999 0.91049462890625 0.476 Q 0.88999462890625 0.417 0.88999462890625 0.353 Q 0.88999462890625 0.285 0.91149462890625 0.22849999999999998 Q 0.9329946289062501 0.17199999999999993 0.97199462890625 0.131 Q 1.01099462890625 0.08999999999999997 1.06449462890625 0.06699999999999995 Q 1.1179946289062501 0.04399999999999993 1.18099462890625 0.04399999999999993 Q 1.22399462890625 0.04399999999999993 1.2594946289062499 0.05399999999999994 Q 1.2949946289062502 0.06399999999999995 1.32249462890625 0.07999999999999996 Q 1.3499946289062499 0.09599999999999997 1.36749462890625 0.11649999999999994 Q 1.38499462890625 0.1369999999999999 1.3919946289062501 0.15799999999999992 L 1.46599462890625 0.15799999999999992 Q 1.4509946289062499 0.124 1.42749462890625 0.09499999999999997 Q 1.4039946289062502 0.06599999999999995 1.36899462890625 0.04499999999999993 Q 1.3339946289062499 0.02399999999999991 1.2869946289062502 0.0119999999999999 Q 1.23999462890625 0 1.17999462890625 0 Q 1.09299462890625 0 1.02149462890625 0.02499999999999991 Q 0.94999462890625 0.04999999999999993 0.89899462890625 0.09649999999999992 Q 0.84799462890625 0.1429999999999999 0.81999462890625 0.2084999999999999 Q 0.79199462890625 0.27399999999999997 0.79199462890625 0.355 Q 0.79199462890625 0.42499999999999993 0.81449462890625 0.49149999999999994 Q 0.83699462890625 0.5579999999999999 0.88399462890625 0.6094999999999999 Q 0.9309946289062501 0.6609999999999999 1.00399462890625 0.6925 Q 1.07699462890625 0.724 1.17799462890625 0.724 Q 1.24199462890625 0.724 1.29249462890625 0.712 Q 1.34299462890625 0.7 1.38049462890625 0.6825 Q 1.41799462890625 0.6649999999999999 1.44299462890625 0.645 Q 1.46799462890625 0.625 1.48099462890625 0.61 L 1.4509946289062499 0.583" fill="#202020" fill-rule="nonzero"></path></g><g></g><g clip-path="url(#SvgjsClipPath1001)"><g clip-path="url(#SvgjsClipPath1000958bb94f-78ba-4414-b430-d25a73d7bd2d)"><path d=" M 2.4577533101633753 -0.21439079730266003 C 2.574664218533072 0.3306733042443446 2.668649065815896 0.5116811582705268 2.2683432347964576 0.42501824672748634 C 2.1622351824362855 0.40197215390717866 2.124305154669524 0.48503411344704317 2.1501119773589337 0.6107073383577925 C 2.7809987683149027 0.7899147163823849 2.763954262166548 0.4406223720745702 2.64224208445929 -0.16217699325664814 Z" fill="#facf0e" transform="matrix(1,0,0,1,0,0)" fill-rule="evenodd"></path></g><g clip-path="url(#SvgjsClipPath1000958bb94f-78ba-4414-b430-d25a73d7bd2d)"><path d=" M 1.8459515648242266 0.8462095993653297 C 1.719558149512841 0.04931892106306951 1.5938849246020896 -0.16601800872669775 2.4101007119880453 -0.028701705672353917 C 2.395216777041598 -0.09363887346291397 2.3791325247607533 -0.15905616818722898 2.3600474791439368 -0.2423581911939729 C 1.5669978163117284 -0.3023740579135277 1.543831691757977 0.03767584291947301 1.6429779035786882 0.7883543038476782 Z" fill="#202020" transform="matrix(1,0,0,1,0,0)" fill-rule="evenodd"></path></g><g clip-path="url(#SvgjsClipPath1000958bb94f-78ba-4414-b430-d25a73d7bd2d)"><path d=" M 2.1283862336064554 0.9263907973026565 C 2.0114753252367628 0.3813266957556518 1.9174904779539343 0.2003188417294695 2.317916340706811 0.2869817532725101 C 2.423904361333549 0.31002784609281775 2.4619544208337443 0.22696588655295324 2.4360275664109006 0.10129266164220396 C 1.8052608071883696 -0.07791471638238837 1.8223053133367242 0.2713776279254262 1.9438974593105445 0.8740569615232049 Z" fill="#facf0e" transform="matrix(1,0,0,1,0,0)" fill-rule="evenodd"></path></g><g clip-path="url(#SvgjsClipPath1000958bb94f-78ba-4414-b430-d25a73d7bd2d)"><path d=" M 2.740187978945608 -0.13420959936533328 C 2.8667014259904313 0.6626810789369288 2.992254619167741 0.8778979769932563 2.176038831781785 0.7407017056723504 C 2.1909227667282325 0.8056388734629104 2.2070070190090774 0.8710561681872254 2.2262120963593355 0.9543581911939693 C 3.019141727458102 1.014374057913526 3.042427883745291 0.6743241570805234 2.9431616401911462 -0.07647433558111952 Z" fill="#202020" transform="matrix(1,0,0,1,0,0)" fill-rule="evenodd"></path></g></g></g><defs><clipPath id="SvgjsClipPath1001"><path d=" M 1.600966796875 -0.24919999999999998 h 1.384325981753272 v 1.2104 h -1.384325981753272 Z"></path></clipPath><clipPath id="SvgjsClipPath1000958bb94f-78ba-4414-b430-d25a73d7bd2d"><path d=" M 1.600966796875 -0.24919999999999987 L 2.9852927786282724 -0.24919999999999987 L 2.9852927786282724 0.9611999999999999 L 1.600966796875 0.9611999999999999 Z"></path></clipPath></defs></svg>